HIERARCHY
ROOT Hips
{
	OFFSET 0.000000 0.000000 0.000000 
	CHANNELS 6 Xposition Yposition Zposition Yrotation Zrotation Xrotation 
	JOINT Lumbar
	{
		OFFSET 0.000000 0.000000 0.000000 
		CHANNELS 3 Zrotation Xrotation Yrotation
		JOINT Neck
		{
			OFFSET 0.000000 0.445665 0.000000 
			CHANNELS 3 Zrotation Xrotation Yrotation
			End Site
			{
				OFFSET 0.000000 0.227535 0.000000 
			}
		}
		JOINT RightShoulder
		{
			OFFSET 0.019635 0.377685 0.194865 
			CHANNELS 3 Zrotation Xrotation Yrotation
			JOINT RightElbow
			{
				OFFSET 0.000000 -0.243375 0.000000 
				CHANNELS 2 Zrotation Yrotation
				JOINT RightWrist
				{
					OFFSET 0.000000 -0.264825 0.000000 
					CHANNELS 2 Zrotation Xrotation
					End Site
					{
						OFFSET 0.006600 -0.176220 0.000990 
					}
				}
			}
		}
		JOINT LeftShoulder
		{
			OFFSET 0.019635 0.377685 -0.194865 
			CHANNELS 3 Zrotation Xrotation Yrotation
			JOINT LeftElbow
			{
				OFFSET 0.000000 -0.243375 0.000000 
				CHANNELS 2 Zrotation Yrotation
				JOINT LeftWrist
				{
					OFFSET 0.000000 -0.264825 0.000000 
					CHANNELS 2 Zrotation Xrotation
					End Site
					{
						OFFSET 0.006600 -0.176220 -0.000990 
					}
				}
			}
		}
	}
	JOINT RightHip
	{
		OFFSET 0.052140 -0.069960 0.075570 
		CHANNELS 3 Zrotation Xrotation Yrotation
		JOINT RightKnee
		{
			OFFSET 0.000000 -0.402270 0.000000 
			CHANNELS 1 Zrotation
			JOINT RightAnkle
			{
				OFFSET 0.000000 -0.404085 0.000000 
				CHANNELS 3 Zrotation Xrotation Yrotation
				End Site
				{
					OFFSET 0.204105 -0.089430 0.008415 
				}
			}
		}
	}
	JOINT LeftHip
	{
		OFFSET 0.052140 -0.069960 -0.075570 
		CHANNELS 3 Zrotation Xrotation Yrotation
		JOINT LeftKnee
		{
			OFFSET 0.000000 -0.402270 0.000000 
			CHANNELS 1 Zrotation
			JOINT LeftAnkle
			{
				OFFSET 0.000000 -0.404085 0.000000 
				CHANNELS 3 Zrotation Xrotation Yrotation
				End Site
				{
					OFFSET 0.204105 -0.089430 -0.008415 
				}
			}
		}
	}
}
MOTION
Frames: 19
Frame Time: 0.02
-0.33223 -0.30584 0.06238 27.06529 -29.90637 -5.3034 15.14178 5.69166 -5.47121 10.94468 -34.44524 -0.83079 169.88196 -147.97147 -90.01163 96.99408 67.83373 -79.69796 -22.96961 169.88196 148.7529 90.01163 80.14087 -62.11699 -79.69805 22.97075 106.26032 -7.61386 -9.08825 -70.71334 -6.14808 -3.00725 -2.15847 108.04659 4.87799 2.01795 -73.29022 -6.05803 3.79771 2.60894
-0.3324 -0.30578 0.06254 27.27017 -29.82874 -5.16865 15.00978 5.634 -5.48117 10.99251 -34.55369 -0.83079 169.88196 -147.88051 -90.01163 96.91272 67.7528 -79.69796 -22.96961 169.88196 149.02477 90.01163 80.13006 -62.13643 -79.69805 22.97075 106.03829 -7.84106 -9.10256 -69.52586 -6.98298 -2.83793 -2.10183 107.92435 4.67435 2.09582 -73.39241 -5.97953 3.83166 2.62179
-0.33262 -0.30567 0.06272 27.5492 -29.7343 -5.00994 14.84568 5.57573 -5.53861 11.01976 -34.56137 -0.83079 169.88196 -147.79729 -90.01163 96.80611 67.65808 -79.69796 -22.9696 169.88196 149.32278 90.01163 80.09022 -62.1508 -79.69805 22.97074 105.75543 -8.13126 -9.11963 -68.01516 -8.0419 -2.63312 -2.03648 107.77 4.4261 2.2054 -73.40796 -5.93991 3.86008 2.63322
-0.33281 -0.30559 0.06288 27.78737 -29.65057 -4.8664 14.70078 5.52012 -5.57293 11.05292 -34.614 -0.83079 169.88196 -147.71259 -90.01163 96.7175 67.57275 -79.69796 -22.9696 169.88196 149.59846 90.01163 80.06757 -62.16752 -79.69805 22.97074 105.51054 -8.38456 -9.13235 -66.70115 -8.96633 -2.45102 -1.97734 107.63488 4.20501 2.29858 -73.46205 -5.88403 3.89011 2.64491
-0.33303 -0.30548 0.06308 28.05652 -29.55358 -4.70381 14.5355 5.45318 -5.61429 11.09918 -34.66563 -0.83079 169.88196 -147.61726 -90.01163 96.60278 67.47365 -79.69796 -22.9696 169.88196 149.91874 90.01163 80.0287 -62.18405 -79.69804 22.97073 105.22207 -8.67428 -9.1583 -65.17396 -10.03082 -2.23986 -1.90808 107.47904 3.95492 2.40215 -73.51919 -5.82314 3.92357 2.65802
-0.33321 -0.30541 0.06322 28.27827 -29.48029 -4.57574 14.40517 5.41031 -5.65216 11.11443 -34.69705 -0.83079 169.88196 -147.5469 -90.01163 96.53565 67.40009 -79.69796 -22.96959 169.88196 150.15223 90.01163 80.01609 -62.19977 -79.69804 22.97072 105.00936 -8.90234 -9.15774 -64.01288 -10.85701 -2.08112 -1.858 107.35906 3.75486 2.49059 -73.54735 -5.78312 3.94872 2.668
-0.3333 -0.30547 0.06321 28.35341 -29.47704 -4.54686 14.38176 5.43236 -5.66761 11.0414 -34.69863 -0.83079 169.88196 -147.54109 -90.01163 96.60924 67.40178 -79.69796 -22.9696 169.88196 150.13857 90.01163 80.08781 -62.21469 -79.69804 22.97072 105.02765 -8.94683 -9.0778 -63.97044 -10.95721 -2.07784 -1.8637 107.34704 3.70091 2.53246 -73.54373 -5.77262 3.95226 2.66868
-0.33337 -0.30557 0.06315 28.3777 -29.49818 -4.55405 14.39423 5.47909 -5.6781 10.9394 -34.6838 -0.83079 169.88196 -147.56089 -90.01163 96.73096 67.42954 -79.69796 -22.9696 169.88196 150.03676 90.01163 80.18602 -62.22896 -79.69804 22.97072 105.12314 -8.92651 -8.97208 -64.30325 -10.81178 -2.12835 -1.88895 107.37205 3.69933 2.55711 -73.50897 -5.78528 3.94763 2.66646
-0.33345 -0.30564 0.06312 28.42367 -29.5079 -4.54612 14.38888 5.51586 -5.69141 10.85587 -34.67626 -0.83079 169.88196 -147.57084 -90.01163 96.82821 67.44455 -79.69796 -22.9696 169.88196 149.97597 90.01163 80.26904 -62.24342 -79.69804 22.97071 105.17872 -8.93427 -8.88159 -64.44603 -10.78701 -2.15308 -1.90488 107.37975 3.67569 2.58756 -73.47165 -5.79861 3.94691 2.66629
-0.33352 -0.30574 0.06308 28.47851 -29.51849 -4.53188 14.38913 5.54749 -5.70368 10.74933 -34.66574 -0.83079 169.88196 -147.57338 -90.01163 96.93497 67.46278 -79.69796 -22.96961 169.88196 149.91214 90.01163 80.36448 -62.25815 -79.69804 22.97071 105.25225 -8.95001 -8.77611 -64.65892 -10.73221 -2.18218 -1.92235 107.38893 3.64327 2.62811 -73.50331 -5.76435 3.94541 2.66306
-0.3336 -0.30578 0.06304 28.50155 -29.53323 -4.53979 14.38621 5.59542 -5.71673 10.68393 -34.65898 -0.83079 169.88196 -147.59744 -90.01163 97.03442 67.48082 -79.69796 -22.96961 169.88196 149.83323 90.01163 80.44055 -62.27222 -79.69804 22.97071 105.30791 -8.93294 -8.69604 -64.82015 -10.67839 -2.21542 -1.94135 107.40349 3.64203 2.64262 -73.38314 -5.8364 3.94333 2.66544
-0.33371 -0.30565 0.06298 28.45125 -29.55404 -4.59899 14.37015 5.6847 -5.72904 10.74075 -34.66609 -0.83079 169.88196 -147.67359 -90.01163 97.09558 67.49084 -79.69796 -22.9696 169.88196 149.73564 90.01163 80.4586 -62.28486 -79.69804 22.9707 105.29247 -8.84052 -8.68935 -64.74001 -10.68857 -2.24727 -1.95998 107.43085 3.71508 2.59342 -72.86934 -6.17601 3.94486 2.68486
-0.33384 -0.30546 0.06291 28.37 -29.57827 -4.67946 14.3492 5.78902 -5.74268 10.83969 -34.67816 -0.83079 169.88196 -147.77047 -90.01163 97.14891 67.50005 -79.69795 -22.96959 169.88196 149.62568 90.01163 80.45617 -62.29687 -79.69804 22.9707 105.25729 -8.71712 -8.70961 -64.59787 -10.70679 -2.28154 -1.97949 107.46143 3.81762 2.51774 -72.2019 -6.62448 3.94561 2.70989
-0.33397 -0.30531 0.06285 28.30114 -29.60052 -4.75108 14.32754 5.885 -5.75835 10.91859 -34.68889 -0.83079 169.88196 -147.85881 -90.01163 97.21027 67.5105 -79.69795 -22.96958 169.88196 149.52015 90.01163 80.46177 -62.30906 -79.69804 22.97072 105.23328 -8.60795 -8.71966 -64.4903 -10.71947 -2.31469 -1.99855 107.48583 3.90635 2.45139 -71.59212 -7.03741 3.94449 2.73178
-0.33408 -0.30509 0.06276 28.23741 -29.62496 -4.82081 14.31872 5.98849 -5.76337 11.00066 -34.69523 -0.83079 169.88196 -147.94526 -90.01163 97.25494 67.51828 -79.69795 -22.96957 169.88196 149.41599 90.01163 80.47304 -62.3216 -79.69804 22.97063 105.20241 -8.49582 -8.72056 -64.36865 -10.73189 -2.34983 -2.01854 107.53049 3.99904 2.39578 -71.02838 -7.39614 3.95208 2.756
-0.33422 -0.30499 0.06273 28.15659 -29.64587 -4.8987 14.28247 6.07922 -5.79018 11.08599 -34.71198 -0.83079 169.88196 -148.03909 -90.01163 97.33124 67.53095 -79.69795 -22.96955 169.88196 149.30794 90.01163 80.46809 -62.33335 -79.69805 22.97077 105.18042 -8.38348 -8.7468 -64.25674 -10.74967 -2.38065 -2.03649 107.53439 4.08927 2.31187 -70.33789 -7.88855 3.94193 2.77679
-0.33444 -0.30522 0.06284 28.03372 -29.65151 -4.99695 14.16353 6.13419 -5.88331 11.17486 -34.75745 -0.83079 169.88196 -148.15784 -90.01163 97.50196 67.55836 -79.69795 -22.96954 169.88197 149.18609 90.01164 80.4161 -62.34245 -79.69811 22.97157 105.185 -8.27722 -8.84057 -64.1857 -10.78332 -2.39913 -2.04888 107.41487 4.16994 2.15501 -69.29037 -8.76455 3.87885 2.7864
-0.33468 -0.30556 0.063 27.89544 -29.65413 -5.10197 14.01846 6.17512 -5.99715 11.26484 -34.81298 -0.83079 169.88196 -148.28142 -90.01163 97.70349 67.59039 -79.69795 -22.96953 169.88197 149.06241 90.01165 80.34954 -62.35089 -79.69819 22.97258 105.19926 -8.17235 -8.95829 -64.12506 -10.82271 -2.41288 -2.05902 107.25587 4.24605 1.97093 -68.12904 -9.76371 3.79873 2.79243
-0.33491 -0.30583 0.06315 27.76602 -29.66124 -5.20169 13.89058 6.22028 -6.09724 11.35127 -34.86335 -0.83079 169.88196 -148.39627 -90.01163 97.88738 67.6195 -79.69795 -22.96952 169.88198 148.94391 90.01165 80.29446 -62.36002 -79.69826 22.97347 105.21064 -8.06769 -9.06244 -64.05846 -10.85869 -2.4284 -2.06988 107.12149 4.32102 1.80019 -67.0493 -10.67923 3.7292 2.80036
